<?xml version="1.0" encoding="UTF-8"?>
<svg id="Capa_2" data-name="Capa 2" xmlns="http://www.w3.org/2000/svg" viewBox="0 0 125.07 75.54">
  <defs>
    <style>
      .cls-1 {
        fill: #252f3e;
      }

      .cls-2 {
        fill: #f90;
      }
    </style>
  </defs>
  <g id="amazonwebservices">
    <g>
      <path class="cls-1" d="m35.25,27.43c0,1.56.17,2.81.46,3.74.33.92.75,1.93,1.33,3.03.21.34.29.67.29.97,0,.42-.25.84-.79,1.26l-2.62,1.76c-.38.25-.75.38-1.08.38-.42,0-.83-.21-1.25-.59-.58-.63-1.08-1.3-1.5-1.98-.42-.71-.83-1.51-1.29-2.48-3.24,3.86-7.32,5.8-12.23,5.8-3.49,0-6.28-1.01-8.32-3.03s-3.08-4.71-3.08-8.07c0-3.57,1.25-6.47,3.79-8.65,2.54-2.18,5.91-3.28,10.19-3.28,1.41,0,2.87.13,4.41.34,1.54.21,3.12.55,4.78.92v-3.07c0-3.19-.66-5.42-1.95-6.72-1.33-1.3-3.58-1.93-6.78-1.93-1.46,0-2.95.17-4.49.55-1.54.38-3.04.84-4.49,1.43-.66.29-1.16.46-1.46.55-.29.08-.5.13-.66.13-.58,0-.87-.42-.87-1.3v-2.06c0-.67.08-1.18.29-1.47.21-.29.58-.59,1.16-.88,1.46-.76,3.2-1.39,5.24-1.89,2.04-.55,4.2-.8,6.49-.8,4.95,0,8.57,1.13,10.9,3.4,2.29,2.27,3.45,5.71,3.45,10.33v13.61h.08Zm-16.89,6.39c1.37,0,2.79-.25,4.28-.76,1.5-.5,2.83-1.43,3.95-2.69.66-.8,1.16-1.68,1.41-2.69.25-1.01.42-2.23.42-3.66v-1.76c-1.21-.29-2.5-.55-3.83-.71-1.33-.17-2.62-.25-3.91-.25-2.79,0-4.83.55-6.2,1.68-1.37,1.13-2.04,2.73-2.04,4.83,0,1.98.5,3.44,1.54,4.45,1,1.05,2.45,1.56,4.37,1.56Zm33.4,4.54c-.75,0-1.25-.13-1.58-.42-.33-.25-.62-.84-.87-1.64L39.53,3.83c-.25-.84-.38-1.39-.38-1.68,0-.67.33-1.05,1-1.05h4.08c.79,0,1.33.13,1.62.42.33.25.58.84.83,1.64l6.99,27.81,6.49-27.81c.21-.84.46-1.39.79-1.64.33-.25.91-.42,1.66-.42h3.33c.79,0,1.33.13,1.66.42.33.25.62.84.79,1.64l6.57,28.15,7.2-28.15c.25-.84.54-1.39.83-1.64.33-.25.87-.42,1.62-.42h3.87c.66,0,1.04.34,1.04,1.05,0,.21-.04.42-.08.67-.04.25-.13.59-.29,1.05l-10.02,32.47c-.25.84-.54,1.39-.87,1.64-.33.25-.87.42-1.58.42h-3.58c-.79,0-1.33-.13-1.66-.42-.33-.29-.62-.84-.79-1.68l-6.45-27.1-6.4,27.06c-.21.84-.46,1.39-.79,1.68-.33.29-.91.42-1.66.42h-3.58Zm53.45,1.13c-2.16,0-4.33-.25-6.4-.76s-3.7-1.05-4.78-1.68c-.66-.38-1.12-.8-1.29-1.18-.17-.38-.25-.8-.25-1.18v-2.14c0-.88.33-1.3.96-1.3.25,0,.5.04.75.13.25.08.62.25,1.04.42,1.41.63,2.95,1.13,4.58,1.47,1.67.34,3.29.5,4.95.5,2.62,0,4.66-.46,6.07-1.39,1.41-.92,2.16-2.27,2.16-3.99,0-1.18-.38-2.14-1.12-2.94-.75-.8-2.16-1.51-4.2-2.18l-6.03-1.89c-3.04-.97-5.28-2.39-6.65-4.29-1.37-1.85-2.08-3.91-2.08-6.09,0-1.76.38-3.32,1.12-4.66.75-1.34,1.75-2.52,2.99-3.44,1.25-.97,2.66-1.68,4.33-2.18,1.66-.5,3.41-.71,5.24-.71.91,0,1.87.04,2.79.17.96.13,1.83.29,2.7.46.83.21,1.62.42,2.37.67.75.25,1.33.5,1.75.76.58.34,1,.67,1.25,1.05.25.34.38.8.38,1.39v1.98c0,.88-.33,1.34-.96,1.34-.33,0-.87-.17-1.58-.5-2.37-1.09-5.03-1.64-7.99-1.64-2.37,0-4.24.38-5.53,1.18-1.29.8-1.95,2.02-1.95,3.74,0,1.18.42,2.18,1.25,2.98.83.8,2.37,1.6,4.58,2.31l5.91,1.89c2.99.97,5.16,2.31,6.45,4.03,1.29,1.72,1.91,3.7,1.91,5.88,0,1.81-.38,3.44-1.08,4.87-.75,1.43-1.75,2.69-3.04,3.7-1.29,1.05-2.83,1.81-4.62,2.35-1.88.59-3.83.88-5.95.88Z"/>
      <path class="cls-2" d="m113.08,59.91c-13.68,10.21-33.57,15.63-50.67,15.63-23.96,0-45.55-8.95-61.86-23.82-1.29-1.18-.12-2.77,1.41-1.85,17.64,10.33,39.39,16.6,61.9,16.6,15.18,0,31.86-3.19,47.21-9.75,2.29-1.05,4.24,1.51,2,3.19Zm5.7-6.55c-1.75-2.27-11.56-1.09-16.01-.55-1.33.17-1.54-1.01-.33-1.89,7.82-5.54,20.67-3.95,22.17-2.1,1.5,1.89-.42,14.87-7.74,21.09-1.12.97-2.2.46-1.71-.8,1.66-4.16,5.37-13.53,3.62-15.75Z"/>
    </g>
  </g>
</svg>