<svg role="img" viewBox="0 0 24 24" xmlns="http://www.w3.org/2000/svg" id="Trivy--Streamline-Simple-Icons" height="24" width="24"><desc>Trivy Streamline Icon: https://streamlinehq.com</desc><title>Trivy</title><path d="M4.375 7.311 1.962 5.918a0.1 0.1 0 0 1 0 -0.174L11.828 0.047a0.343 0.343 0 0 1 0.344 0l9.864 5.696a0.1 0.1 0 0 1 0 0.175L19.624 7.31a0.962 0.962 0 0 1 -0.052 -0.074c-0.914 -1.478 -2.124 -2.592 -3.596 -3.31 -4.088 -1.994 -9.164 -0.505 -11.6 3.385Zm7.887 16.588v-3.14c5.693 -2.087 9.01 -7.766 7.588 -12.985l2.436 -1.42a0.1 0.1 0 0 1 0.151 0.088v11.645a0.1 0.1 0 0 1 -0.05 0.087l-9.973 5.812a0.1 0.1 0 0 1 -0.152 -0.087Zm-0.559 -3.141v3.14a0.1 0.1 0 0 1 -0.151 0.086l-9.933 -5.81a0.114 0.114 0 0 1 -0.056 -0.099V6.436a0.1 0.1 0 0 1 0.15 -0.087l2.44 1.41c-1.455 5.307 1.846 10.993 7.55 13ZM7.013 8.834 4.807 7.561c2.306 -3.665 7.094 -5.066 10.95 -3.186 1.385 0.676 2.526 1.727 3.39 3.124l0.04 0.062 -2.195 1.268a5.57 5.57 0 0 0 -2.429 -2.307c-2.603 -1.27 -5.901 -0.253 -7.552 2.311Zm9.337 5.2c0.813 -1.371 1.088 -2.99 0.798 -4.685l2.255 -1.314c1.245 4.86 -1.864 10.169 -7.14 12.192v-3.072c1.86 -0.67 3.272 -1.747 4.087 -3.12ZM4.6 8.018l2.27 1.31c-0.225 1.571 0.112 3.204 0.951 4.606 0.919 1.536 2.225 2.629 3.881 3.25v3.045C6.327 18.25 3.297 13.042 4.601 8.017Zm5.303 2.486 -2.459 -1.42c1.52 -2.34 4.53 -3.268 6.9 -2.112A5.075 5.075 0 0 1 16.56 9.08l-2.471 1.427a2.311 2.311 0 0 0 -2.03 -1.195c-0.825 0 -1.645 0.43 -2.156 1.192Zm4.338 0.522 2.443 -1.408c0.22 1.51 -0.043 2.945 -0.765 4.162 -0.735 1.238 -1.998 2.224 -3.658 2.856v-2.631c1.25 -0.691 1.968 -1.771 1.98 -2.979Zm-5.991 2.65A6.576 6.576 0 0 1 7.34 9.6l2.446 1.412c-0.016 1.271 0.73 2.437 1.917 2.997v2.624a6.977 6.977 0 0 1 -3.453 -2.956Zm3.853 -0.148 -0.137 0.073 -0.157 -0.075c-1.023 -0.504 -1.524 -1.606 -1.557 -2.417a1.99 1.99 0 0 1 0.004 -0.23 2.153 2.153 0 0 1 1.163 -0.957c0.508 -0.178 1.034 -0.153 1.444 0.071 0.6 0.327 0.84 0.797 0.86 0.86 0.008 0.156 0.004 0.253 0.004 0.256 -0.038 0.981 -0.63 1.863 -1.624 2.419Z" fill="#000000" stroke-width="1"></path></svg>